<?xml version="1.0"?>
<svg xmlns="http://www.w3.org/2000/svg" height="512px" viewBox="-26 -26 853.33331 853.33331" width="512px"><path d="m78.25 424.914062c0 7.371094-5.972656 13.335938-13.328125 13.335938-7.371094 0-13.339844-5.964844-13.339844-13.335938 0-7.355468 5.96875-13.328124 13.339844-13.328124 7.355469 0 13.328125 5.972656 13.328125 13.328124zm0 0" fill="#006DF0"/><path d="m78.25 344.921875c0 7.355469-5.972656 13.328125-13.328125 13.328125-7.371094 0-13.339844-5.972656-13.339844-13.328125 0-7.371094 5.96875-13.339844 13.339844-13.339844 7.355469 0 13.328125 5.96875 13.328125 13.339844zm0 0" fill="#006DF0"/><path d="m78.25 504.914062c0 7.371094-5.972656 13.335938-13.328125 13.335938-7.371094 0-13.339844-5.964844-13.339844-13.335938 0-7.355468 5.96875-13.328124 13.339844-13.328124 7.355469 0 13.328125 5.972656 13.328125 13.328124zm0 0" fill="#006DF0"/><path d="m758.25 291.585938h-40v-133.335938c0-22.089844-17.90625-40-40-40h-66.664062v-80c0-22.089844-17.914063-40-40-40h-106.664063c-22.097656 0-40.007813 17.910156-40.007813 40v186.664062c0 22.097657 17.910157 40.007813 40.007813 40.007813h39.992187v13.328125c0 7.363281-5.96875 13.335938-13.328124 13.335938h-186.671876c-7.355468 0-13.328124-5.972657-13.328124-13.335938v-13.328125h39.996093c22.09375 0 40.003907-17.910156 40.003907-40.007813v-186.664062c0-22.089844-17.910157-40-40.003907-40h-106.667969c-22.082031 0-40 17.910156-40 40v80h-66.664062c-22.09375 0-40 17.910156-40 40v133.335938h-40c-22.089844 0-40 17.90625-40 39.996093v186.667969c0 22.089844 17.910156 40 40 40h40v53.335938c0 22.089843 17.90625 39.996093 40 39.996093h21.144531l-3.90625 3.90625c-3.457031 3.351563-4.855469 8.308594-3.632812 12.972657 1.21875 4.652343 4.863281 8.300781 9.519531 9.519531 4.667969 1.222656 9.621094-.167969 12.96875-3.636719l26.664062-26.667969c5.207032-5.207031 5.207032-13.644531 0-18.855469l-26.664062-26.664062c-5.234375-5.054688-13.542969-4.980469-18.691406.167969-5.144532 5.136719-5.214844 13.457031-.164063 18.683593l3.90625 3.90625h-21.144531c-7.363281 0-13.335938-5.964843-13.335938-13.328124v-53.335938h40.007813c22.082031 0 39.992187-17.910156 39.992187-40v-186.667969c0-22.089843-17.910156-39.996093-39.992187-39.996093h-40.007813v-133.335938c0-7.363281 5.972657-13.328125 13.335938-13.328125h66.664062v79.992187c0 22.097657 17.917969 40.007813 40 40.007813h40.007813v13.328125c0 22.09375 17.902344 40 39.992187 40h80v34.484375l-3.90625-3.90625c-5.226562-5.058594-13.542968-4.980469-18.691406.160156-5.140625 5.140625-5.207031 13.460938-.160156 18.691407l26.671875 26.664062c1.238281 1.230469 2.707031 2.21875 4.335937 2.882812 3.25 1.367188 6.921876 1.367188 10.175782 0 1.625-.664062 3.09375-1.652343 4.335937-2.882812l26.667969-26.664062c5.050781-5.230469 4.980469-13.550782-.160156-18.691407-5.148438-5.140625-13.460938-5.21875-18.691406-.160156l-3.90625 3.90625v-34.484375h80c22.089843 0 39.996093-17.90625 39.996093-40v-13.328125h40.003907c22.085937 0 40-17.910156 40-40.007813v-79.992187h66.664062c7.363281 0 13.335938 5.964844 13.335938 13.328125v133.335938h-40.003907c-22.085937 0-39.996093 17.90625-39.996093 39.996093v186.667969c0 22.089844 17.910156 40 39.996093 40h40.003907v53.335938c0 7.363281-5.972657 13.328124-13.335938 13.328124h-21.140625l3.90625-3.90625c5.046875-5.226562 4.980469-13.546874-.167969-18.683593-5.144531-5.148438-13.457031-5.222657-18.691406-.167969l-26.664062 26.664062c-5.207032 5.210938-5.207032 13.648438 0 18.855469l26.664062 26.667969c5.234375 5.054688 13.546875 4.980469 18.691406-.160156 5.148438-5.140625 5.214844-13.460938.167969-18.695313l-3.90625-3.90625h21.140625c22.09375 0 40-17.90625 40-39.996093v-53.335938h40c22.089844 0 40-17.910156 40-40v-186.667969c0-22.089843-17.910156-39.996093-40-39.996093zm-600 159.996093h-133.335938v-53.332031h133.335938zm-13.328125 80h-106.671875c-7.363281 0-13.335938-5.96875-13.335938-13.332031v-40h133.335938v40c0 7.363281-5.972656 13.332031-13.328125 13.332031zm13.328125-200v40.003907h-133.335938v-40.003907c0-7.359375 5.972657-13.332031 13.335938-13.332031h106.671875c7.355469 0 13.328125 5.972656 13.328125 13.332031zm53.335938-226.667969h133.335937v53.335938h-133.335937zm13.328124-80h106.667969c7.367188 0 13.339844 5.972657 13.339844 13.335938v40h-133.335937v-40c0-7.363281 5.972656-13.335938 13.328124-13.335938zm-13.328124 200v-40h133.335937v40c0 7.371094-5.972656 13.335938-13.339844 13.335938h-106.667969c-7.355468 0-13.328124-5.964844-13.328124-13.335938zm239.996093-120h133.332031v53.335938h-133.332031zm13.339844-80h106.664063c7.359374 0 13.328124 5.972657 13.328124 13.335938v40h-133.332031v-40c0-7.363281 5.96875-13.335938 13.339844-13.335938zm106.664063 213.335938h-106.664063c-7.371094 0-13.339844-5.964844-13.339844-13.335938v-40h133.332031v40c0 7.371094-5.96875 13.335938-13.328124 13.335938zm66.664062 160h133.335938v53.332031h-133.335938zm13.332031-80h106.667969c7.363281 0 13.335938 5.972656 13.335938 13.332031v40.003907h-133.335938v-40.003907c0-7.359375 5.972656-13.332031 13.332031-13.332031zm106.667969 213.332031h-106.667969c-7.359375 0-13.332031-5.96875-13.332031-13.332031v-40h133.335938v40c0 7.363281-5.972657 13.332031-13.335938 13.332031zm0 0" fill="#006DF0"/><path d="m691.585938 424.914062c0 7.371094-5.972657 13.335938-13.335938 13.335938s-13.328125-5.964844-13.328125-13.335938c0-7.355468 5.964844-13.328124 13.328125-13.328124s13.335938 5.972656 13.335938 13.328124zm0 0" fill="#006DF0"/><path d="m691.585938 344.921875c0 7.355469-5.972657 13.328125-13.335938 13.328125s-13.328125-5.972656-13.328125-13.328125c0-7.371094 5.964844-13.339844 13.328125-13.339844s13.335938 5.96875 13.335938 13.339844zm0 0" fill="#006DF0"/><path d="m691.585938 504.914062c0 7.371094-5.972657 13.335938-13.335938 13.335938s-13.328125-5.964844-13.328125-13.335938c0-7.355468 5.964844-13.328124 13.328125-13.328124s13.335938 5.972656 13.335938 13.328124zm0 0" fill="#006DF0"/><path d="m531.582031 598.25c0 7.363281-5.96875 13.335938-13.332031 13.335938s-13.335938-5.972657-13.335938-13.335938 5.972657-13.335938 13.335938-13.335938 13.332031 5.972657 13.332031 13.335938zm0 0" fill="#006DF0"/><path d="m264.921875 131.582031c0 7.367188-5.972656 13.339844-13.339844 13.339844-7.359375 0-13.332031-5.972656-13.332031-13.339844 0-7.359375 5.972656-13.332031 13.332031-13.332031 7.367188 0 13.339844 5.972656 13.339844 13.332031zm0 0" fill="#006DF0"/><path d="m264.921875 51.582031c0 7.367188-5.972656 13.339844-13.339844 13.339844-7.359375 0-13.332031-5.972656-13.332031-13.339844 0-7.359375 5.972656-13.332031 13.332031-13.332031 7.367188 0 13.339844 5.972656 13.339844 13.332031zm0 0" fill="#006DF0"/><path d="m264.921875 211.585938c0 7.363281-5.972656 13.328124-13.339844 13.328124-7.359375 0-13.332031-5.964843-13.332031-13.328124 0-7.367188 5.972656-13.335938 13.332031-13.335938 7.367188 0 13.339844 5.96875 13.339844 13.335938zm0 0" fill="#006DF0"/><path d="m504.914062 131.582031c0 7.367188-5.96875 13.339844-13.328124 13.339844-7.367188 0-13.335938-5.972656-13.335938-13.339844 0-7.359375 5.96875-13.332031 13.335938-13.332031 7.359374 0 13.328124 5.972656 13.328124 13.332031zm0 0" fill="#006DF0"/><path d="m504.914062 51.582031c0 7.367188-5.96875 13.339844-13.328124 13.339844-7.367188 0-13.335938-5.972656-13.335938-13.339844 0-7.359375 5.96875-13.332031 13.335938-13.332031 7.359374 0 13.328124 5.972656 13.328124 13.332031zm0 0" fill="#006DF0"/><path d="m504.914062 211.585938c0 7.363281-5.96875 13.328124-13.328124 13.328124-7.367188 0-13.335938-5.964843-13.335938-13.328124 0-7.367188 5.96875-13.335938 13.335938-13.335938 7.359374 0 13.328124 5.96875 13.328124 13.335938zm0 0" fill="#006DF0"/><path d="m584.914062 678.25v-213.328125c0-22.097656-17.910156-40.007813-39.992187-40.007813h-293.339844c-22.085937 0-39.996093 17.910157-39.996093 40.007813v213.328125c0 22.09375 17.910156 40 39.996093 40h92.910157c-1.601563 27.570312-7.773438 50.53125-13.058594 53.335938h-13.183594c-7.363281 0-13.335938 5.964843-13.335938 13.328124 0 7.371094 5.972657 13.335938 13.335938 13.335938h160c7.363281 0 13.335938-5.964844 13.335938-13.335938 0-7.363281-5.972657-13.328124-13.335938-13.328124h-13.183594c-5.335937-2.804688-11.453125-25.765626-13.054687-53.335938h92.910156c22.082031 0 39.992187-17.90625 39.992187-40zm-333.332031-226.667969h293.339844c7.355469 0 13.328125 5.96875 13.328125 13.339844v173.328125h-320v-173.328125c0-7.371094 5.972656-13.339844 13.332031-13.339844zm-13.332031 226.667969v-13.328125h320v13.328125c0 7.363281-5.972656 13.335938-13.328125 13.335938h-293.339844c-7.359375 0-13.332031-5.972657-13.332031-13.335938zm196.226562 93.335938h-72.453124c5.800781-17.203126 8.941406-35.191407 9.332031-53.335938h53.921875c.339844 18.140625 3.445312 36.128906 9.199218 53.335938zm0 0" fill="#006DF0"/><path d="m347.488281 611.585938h101.523438c10.792969.085937 20.753906-5.777344 25.917969-15.257813 4.90625-8.960937 4.386718-19.910156-1.332032-28.371094l-50.761718-76.683593c-5.53125-8.140626-14.742188-13.019532-24.585938-13.019532s-19.050781 4.878906-24.585938 13.019532l-50.75 76.675781c-5.722656 8.464843-6.234374 19.417969-1.328124 28.378906 5.160156 9.472656 15.117187 15.339844 25.902343 15.257813zm48.417969-105.589844c.464844-.859375 1.363281-1.398438 2.34375-1.398438s1.878906.539063 2.34375 1.398438l50.839844 77.722656c-.507813.832031-1.449219 1.292969-2.421875 1.195312h-101.523438c-1.601562 0-2.222656-.832031-2.34375-2.25zm0 0" fill="#006DF0"/><path d="m518.25 558.25c7.363281 0 13.332031-5.972656 13.332031-13.328125v-53.335937c0-7.367188-5.96875-13.335938-13.332031-13.335938s-13.335938 5.96875-13.335938 13.335938v53.335937c0 7.355469 5.972657 13.328125 13.335938 13.328125zm0 0" fill="#006DF0"/><path d="m291.585938 598.25c0 7.363281-5.972657 13.335938-13.335938 13.335938s-13.328125-5.972657-13.328125-13.335938 5.964844-13.335938 13.328125-13.335938 13.335938 5.972657 13.335938 13.335938zm0 0" fill="#006DF0"/><path d="m278.25 558.25c7.363281 0 13.335938-5.972656 13.335938-13.328125v-53.335937c0-7.367188-5.972657-13.335938-13.335938-13.335938s-13.328125 5.96875-13.328125 13.335938v53.335937c0 7.355469 5.964844 13.328125 13.328125 13.328125zm0 0" fill="#006DF0"/></svg>
