<?xml version="1.0"?>
<svg xmlns="http://www.w3.org/2000/svg" height="512px" viewBox="-92 0 512 512" width="512px"><path d="m284.910156 0h-241.929687c-23.699219 0-42.980469 19.28125-42.980469 42.980469v426.039062c0 23.699219 19.28125 42.980469 42.980469 42.980469h241.929687c23.695313 0 42.976563-19.28125 42.976563-42.980469v-426.039062c0-23.699219-19.28125-42.980469-42.976563-42.980469zm0 496.792969h-241.929687c-15.3125 0-27.773438-12.460938-27.773438-27.773438v-11.601562h75.128907c4.199218 0 7.601562-3.402344 7.601562-7.601563 0-4.199218-3.402344-7.605468-7.601562-7.605468h-75.128907v-370.402344h218.167969c4.199219 0 7.605469-3.40625 7.605469-7.605469s-3.40625-7.601563-7.605469-7.601563h-218.167969v-13.621093c0-15.316407 12.460938-27.773438 27.773438-27.773438h241.929687c15.3125 0 27.769532 12.460938 27.769532 27.773438v13.621093h-48.882813c-4.199219 0-7.605469 3.402344-7.605469 7.601563s3.40625 7.605469 7.605469 7.605469h48.882813v370.402344h-191.925782c-4.199218 0-7.605468 3.402343-7.605468 7.601562s3.40625 7.605469 7.605468 7.605469h191.925782v11.601562c0 15.3125-12.460938 27.773438-27.769532 27.773438zm0 0" fill="#006DF0"/><path d="m197.398438 28.40625h-66.910157c-4.199219 0-7.605469 3.402344-7.605469 7.601562 0 4.199219 3.40625 7.605469 7.605469 7.605469h66.910157c4.199218 0 7.605468-3.40625 7.605468-7.605469 0-4.199218-3.40625-7.601562-7.605468-7.601562zm0 0" fill="#006DF0"/><path d="m147.820312 304.457031v-39.84375h32.242188v39.84375c0 4.199219 3.402344 7.605469 7.601562 7.605469h47.449219c4.199219 0 7.605469-3.40625 7.605469-7.605469v-39.84375h39.84375c4.199219 0 7.605469-3.40625 7.605469-7.605469v-47.449218c0-4.199219-3.40625-7.601563-7.605469-7.601563h-47.449219c-4.199219 0-7.601562 3.402344-7.601562 7.601563v39.847656h-32.242188v-39.847656c0-4.199219-3.40625-7.601563-7.605469-7.601563h-47.445312c-4.199219 0-7.605469 3.402344-7.605469 7.601563v39.847656h-32.242187v-39.847656c0-4.199219-3.402344-7.601563-7.601563-7.601563h-47.449219c-4.199218 0-7.605468 3.402344-7.605468 7.601563v47.449218c0 4.199219 3.40625 7.605469 7.605468 7.605469h39.84375v39.84375c0 4.199219 3.40625 7.605469 7.605469 7.605469h47.449219c4.199219 0 7.601562-3.40625 7.601562-7.605469zm94.898438-87.292969h32.242188v32.242188h-32.242188zm-15.207031 79.691407h-32.242188v-32.242188h32.242188zm-79.691407-79.691407h32.242188v32.242188h-32.242188zm-94.894531 0h32.238281v32.242188h-32.238281zm79.6875 79.691407h-32.242187v-32.242188h32.242187zm0 0" fill="#006DF0"/></svg>
